<?xml version="1.0" encoding="UTF-8"?>
<svg xmlns="http://www.w3.org/2000/svg" version="1.1" viewBox="0 0 2000 2000">
  <!-- Generator: Adobe Illustrator 29.7.1, SVG Export Plug-In . SVG Version: 2.1.1 Build 8)  -->
  <defs>
    <style>
      .st0 {
        opacity: .5;
        stroke-width: 10px;
      }

      .st0, .st1, .st2, .st3 {
        stroke: #fff;
        stroke-miterlimit: 10;
      }

      .st0, .st1, .st3 {
        fill: #fff;
      }

      .st1, .st2 {
        stroke-width: 100px;
      }

      .st2 {
        fill: none;
      }

      .st3 {
        stroke-linecap: round;
      }
    </style>
  </defs>
  <g id="Camada_2">
    <line class="st3" x1="922.16" y1="593.5" x2="922.16" y2="450.56"/>
    <path class="st0" d="M914.3,1318.89c16.92-80.84-27.98-162.81-22.7-245.23,2.88-45,20.56-87.56,30.5-131.54,39.64-175.37-45.42-356.88-28.37-535.87,1.02-10.72,2.55-21.8,8.32-30.9,9.46-14.9,27.8-21,44.73-26,43.5-12.85,95.32-23.84,130.3,5.03,22.88,18.88,31.45,49.94,35.37,79.35,17.24,129.34-31,258.77-29.44,389.24,1.13,94.34,28.27,186.7,32.18,280.96,5.24,126.64-31.59,252.47-24.04,378.99,37.48-24.08,85.41-24.81,129.43-17.99,44.02,6.82,87.14,20.37,131.66,22.14,87.64,3.48,178.65-38.43,260.47-6.84,19.12,7.38,37.13,18.99,48.93,35.75,16.5,23.42,19.05,53.59,21.05,82.18,1.22,17.4,2.13,36.14-7.14,50.92-10.89,17.37-32.49,24.16-52.4,29.02-170.33,41.65-348.04,37.8-523.34,33.69-88.97-2.08-177.93-4.16-266.9-6.25-138.75-3.25-277.49-6.49-416.24-9.74-13.98-.33-29.09-1.05-39.93-9.89-16.23-13.23-15.54-37.83-12.96-58.6,5.44-43.89,12.88-87.53,22.29-130.74,161.95-17.02,327.98,12.32,487.17-22,31.77-6.85,67.23-19.93,78.46-50.43,12.51-33.97-11.44-69.1-27.99-101.29-39.81-77.45-38.08-174.79,4.46-250.78"/>
  </g>
  <g id="Camada_1">
    <polyline class="st1" points="1009.71 268.71 1740.48 268.71 1740.48 340.08 259.52 340.08 259.52 268.71 1009.71 268.71"/>
    <rect class="st2" x="827.56" y="563.46" width="1173.64" height="652.19" rx="9.02" ry="9.02" transform="translate(2303.94 -524.82) rotate(90)"/>
    <rect class="st2" x="-1.2" y="563.46" width="1173.64" height="652.19" rx="9.02" ry="9.02" transform="translate(1475.18 303.94) rotate(90)"/>
    <line class="st2" x1="359.71" y1="1709.19" x2="1700.19" y2="1711.57"/>
    <line class="st2" x1="1674" y1="1475.86" x2="1674" y2="1761.65"/>
    <line class="st2" x1="359.71" y1="1475.86" x2="359.71" y2="1759.25"/>
  </g>
</svg>