<?xml version="1.0" encoding="UTF-8"?>
<svg xmlns="http://www.w3.org/2000/svg" version="1.1" viewBox="0 0 2000 2000">
  <!-- Generator: Adobe Illustrator 29.7.1, SVG Export Plug-In . SVG Version: 2.1.1 Build 8)  -->
  <defs>
    <style>
      .st0, .st1 {
        stroke-width: 100px;
      }

      .st0, .st1, .st2 {
        stroke: #fff;
        stroke-miterlimit: 10;
      }

      .st0, .st2 {
        fill: #fff;
      }

      .st1 {
        fill: none;
      }

      .st2 {
        opacity: .5;
        stroke-linecap: round;
      }
    </style>
  </defs>
  <g id="Camada_2">
    <path class="st2" d="M1667.13,1497.18c1.72,50.03-.92,100.21-7.87,149.78-1.85,13.17-4.21,26.82-11.95,37.64-13.43,18.76-38.77,23.77-61.66,26.69-139.8,17.85-281.38,13.03-422.23,8.16-246.11-8.49-492.22-16.99-738.32-25.48-10.44-.36-21.11-.77-30.83-4.58-33.85-13.27-39.79-57.82-40.38-94.17-.44-27.23.18-57.4,18.68-77.39,29.27-31.61,84.31-18.9,119.55-43.68,19.95-14.03,30.42-38.15,35.5-62,16.41-77.01-13.64-155.31-24.28-233.33-15.77-115.67,11.41-232.26,22.53-348.47,15.11-157.86.51-316.84-10.4-475.04-.91-13.18-.98-28.44,9.04-37.05,7.8-6.7,19.08-6.92,29.36-6.82,277.44,2.67,555.06-12.99,830.44-46.86,12.76-1.57,26.77-2.91,37.49,4.19,7.34,4.85,11.84,12.88,15.85,20.71,22.47,43.84,38.17,91.14,46.38,139.72,4.22,24.97,6.46,50.55,2.78,75.6-3.44,23.35-11.92,45.62-17.72,68.5-10.11,39.84-12.02,81.23-13.89,122.29-11,241.66-21.97,484.51,4.91,724.92,1.31,11.71,2.81,23.75,8.54,34.05,17.72,31.91,63.29,31.17,99.2,24.63,35.91-6.54,79.76-11.89,102.59,16.58,8.34,10.4,12.09,23.76,14.07,36.94,14.13,94.39-68.2,191.41-163.63,192.84"/>
  </g>
  <g id="Camada_1">
    <polyline class="st0" points="1009.71 268.71 1740.48 268.71 1740.48 340.08 259.52 340.08 259.52 268.71 1009.71 268.71"/>
    <rect class="st1" x="1013.22" y="749.12" width="1173.64" height="280.87" rx="9.02" ry="9.02" transform="translate(2489.6 -710.48) rotate(90)"/>
    <line class="st1" x1="359.71" y1="1709.19" x2="1700.19" y2="1711.57"/>
    <line class="st1" x1="1674" y1="1475.86" x2="1674" y2="1761.65"/>
    <line class="st1" x1="359.71" y1="1475.86" x2="359.71" y2="1759.25"/>
    <rect class="st1" x="-186.86" y="749.12" width="1173.64" height="280.87" rx="9.02" ry="9.02" transform="translate(1289.52 489.6) rotate(90)"/>
  </g>
</svg>