<?xml version="1.0" encoding="UTF-8"?>
<svg id="Camada_1" xmlns="http://www.w3.org/2000/svg" version="1.1" viewBox="0 0 1993 522">
  <!-- Generator: Adobe Illustrator 29.7.1, SVG Export Plug-In . SVG Version: 2.1.1 Build 8)  -->
  <defs>
    <style>
      .st0 {
        fill: #fff;
      }
    </style>
  </defs>
  <g>
    <path class="st0" d="M1801,294h-67c.78-60.65-46.76-101.71-105-105v-71c36.25,1.93,72.18,10.52,102.31,31.19,46.71,32.03,69.56,89.17,69.69,144.81Z"/>
    <path class="st0" d="M1702,353h-175c10.28,61.16,94.01,69.89,132.5,30.04,3.44,3.61,28.94,31.01,28.04,32.98-.38.84-5.82,5.84-7.07,6.96-46.09,41.16-134.25,36.4-176.5-8.45-33.62-35.69-38.22-95.1-14.14-137.2,41.69-72.91,158.22-74.31,198.69.65,12.65,23.43,15.08,48.82,13.48,75.02ZM1653,319c-8.33-72.14-118.62-72.35-126,0h126Z"/>
    <path class="st0" d="M1628,24c56.79,1.27,114.7,16.36,161.32,49.18,51.65,36.36,84.71,92.63,99.39,153.61,5.29,21.96,7.76,44.18,9.31,66.71l-1.48,1.5-67.54-1c-.98-63.52-24.02-125.16-77.1-162.4-29.37-20.6-69.6-33.84-105.4-36.6-2.82-.22-18.49,1-18.49-1.51V24Z"/>
  </g>
  <g>
    <path class="st0" d="M752,353h-175c10.28,61.16,94.01,69.89,132.5,30.04,3.44,3.61,28.94,31.01,28.04,32.98-.38.84-5.82,5.84-7.07,6.96-46.09,41.16-134.25,36.4-176.5-8.45-33.62-35.69-38.22-95.1-14.14-137.2,41.69-72.91,158.22-74.31,198.69.65,12.65,23.43,15.08,48.82,13.48,75.02ZM703,319c-8.33-72.14-118.62-72.35-126,0h126Z"/>
    <path class="st0" d="M862,176v49h60v42h-60v114.5c0,.72,1.77,6.52,2.22,7.78,8.31,23.13,40.45,23.26,57.28,9.74l15.09,35.91c.27,2.89-12.59,8.75-15.32,9.83-50.75,19.99-112.76-4.64-111.3-65.22l.04-112.54h-36v-42h36v-49h52Z"/>
  </g>
  <g>
    <path class="st0" d="M1444,225v33.5l-119.5,144.5-1.5,3h125v42h-192v-33.5l122-147.5h-120v-40.5c0-.11,1.39-1.5,1.5-1.5h184.5Z"/>
    <path class="st0" d="M1109,272c-27.47-4.25-58.35,5.46-70.17,32.33-4.58,10.42-5.69,20.94-6.87,32.13l.04,111.54h-51v-223h49v32c13.03-17.98,32.89-29.17,54.79-32.71,7.26-1.17,14.52-.96,21.72-2.32.84-.11,2.49,1.03,2.49,1.53v48.5Z"/>
  </g>
  <g>
    <polygon class="st0" points="361 156 361 202 202 202 202 277 343 277 343 322 202 322 202 402 367 402 367 448 148 448 148 156 361 156"/>
    <rect class="st0" x="424" y="139" width="51" height="309"/>
  </g>
  <g>
    <rect class="st0" x="1154" y="225" width="51" height="223"/>
    <path class="st0" d="M1173.78,126.28c50.25-6.29,50.45,63.41,4.77,62.75-40.88-.59-44.24-57.81-4.77-62.75Z"/>
  </g>
</svg>